<?xml version="1.0" encoding="UTF-8"?>
<svg width="24" height="24" viewBox="0 0 24 24" fill="none" xmlns="http://www.w3.org/2000/svg">
  <path d="M17.6 9.48l1.84-3.18c.16-.31.04-.69-.26-.85-.29-.15-.65-.03-.83.27l-1.87 3.23c-1.55-.65-3.28-.65-4.84 0L9.77 5.72c-.18-.3-.54-.42-.83-.27-.3.16-.42.54-.26.85l1.84 3.18C7.37 10.7 5 13.14 5 16v1c0 .55.45 1 1 1h12c.55 0 1-.45 1-1v-1c0-2.86-2.37-5.3-5.4-6.52zM8 16c-.55 0-1-.45-1-1s.45-1 1-1 1 .45 1 1-.45 1-1 1zm8 0c-.55 0-1-.45-1-1s.45-1 1-1 1 .45 1 1-.45 1-1 1z" fill="#0078d7"/>
</svg>
